<?xml version="1.0" encoding="utf-8"?>
<!-- Generator: Adobe Illustrator 27.5.0, SVG Export Plug-In . SVG Version: 6.00 Build 0)  -->
<svg version="1.1" xmlns="http://www.w3.org/2000/svg" xmlns:xlink="http://www.w3.org/1999/xlink" x="0px" y="0px"
	 viewBox="0 0 500 500" style="enable-background:new 0 0 500 500;" xml:space="preserve">
<g id="BACKGROUND">
	<rect style="fill:#A1C5EB;" width="500" height="500"/>
</g>
<g id="OBJECTS">
	<path style="fill:#CBE3F8;" d="M190.881,221.424c17.008-6.622,32.554-16.743,47.213-28.024
		c33.585-25.848,66.791-61.361,110.676-65.64c30.617-2.985,61.562,11.144,82.871,34.1c21.309,22.956,33.491,53.933,37.601,85.486
		c8.075,62.002-16.705,129.141-66.672,164.325c-40.058,28.207-94.487,36.352-142.036,36.6
		c-51.857,0.27-112.745-9.542-155.976-40.663c-37.905-27.287-69.111-71.32-70.105-120.601c-0.331-16.445,2.897-32.799,9.226-47.875
		c11.333-27,31.772-27.421,55.929-19.566c24.205,7.871,49.859,12.85,74.982,6.947C180.173,225.201,185.598,223.482,190.881,221.424z
		"/>
	<g>
		<g>
			<path style="fill:#3A739B;" d="M346.986,413.924c-2.588,0-4.898-1.826-5.418-4.461c-0.589-2.996,1.362-5.902,4.356-6.492
				c21.474-4.227,44.226-10.51,65.796-18.168c10.774-3.825,24.514-11.897,27.778-22.053c1.52-4.731,0.535-9.511-3.012-14.612
				c-8.811-12.668-25.921-20.512-43.098-27.103c-17.905-6.87-37.233-10.823-55.926-14.645c-2.816-0.577-5.63-1.152-8.44-1.736
				c-2.99-0.623-4.908-3.55-4.286-6.538c0.622-2.99,3.556-4.904,6.538-4.286c2.797,0.583,5.599,1.155,8.402,1.729
				c19.132,3.913,38.914,7.958,57.671,15.155c18.826,7.223,37.698,15.991,48.214,31.113c5.492,7.897,7.035,16.302,4.462,24.307
				c-4.495,13.984-20.822,24.195-34.604,29.089c-22.07,7.836-45.363,14.267-67.359,18.597
				C347.7,413.89,347.34,413.924,346.986,413.924z"/>
		</g>
		<g>
			<g>
				<g>
					<path style="fill:#3A739B;" d="M121.863,425.828c-0.037,0-0.075,0-0.112-0.001c-14.784-0.295-30.143-1.811-42.318-10.838
						c-15.535-11.517-22.043-33.935-15.827-54.518c5.078-16.813,17.994-32.162,36.368-43.221
						c16.012-9.636,33.813-15.075,51.029-20.336c2.918-0.892,6.009,0.751,6.902,3.672c0.892,2.919-0.751,6.009-3.671,6.902
						c-16.575,5.064-33.714,10.301-48.559,19.235c-16.02,9.641-27.201,22.761-31.485,36.944c-4.815,15.942,0.159,33.79,11.827,42.44
						c9.684,7.18,23.003,8.407,35.954,8.665c3.052,0.06,5.478,2.585,5.417,5.637C127.328,423.425,124.864,425.828,121.863,425.828z"
						/>
				</g>
			</g>
		</g>
	</g>
	<g>
		<path style="fill:#FFFFFF;" d="M163.965,101.959c-1.388-3.235-2.486-6.691-2.325-10.207c0.162-3.516,1.773-7.118,4.785-8.94
			c3.492-2.112,8.127-1.409,11.629,0.686c3.502,2.095,6.118,5.363,8.654,8.56c-0.903-4.4-1.81-8.849-1.679-13.339
			c0.131-4.49,1.399-9.094,4.374-12.459c2.975-3.366,7.86-5.228,12.137-3.854c4.277,1.374,7.255,6.428,5.668,10.63
			c5.745-16.72,21.634-29.483,39.2-31.487c4.746-0.542,9.978-0.209,13.625,2.876c5.608,4.743,4.988,13.41,3.88,20.671
			c8.596-9.055,17.455-18.305,28.707-23.714c11.252-5.409,25.593-6.225,35.593,1.25c8.636,6.455,12.451,18.307,10.285,28.869
			s-9.775,19.607-19.314,24.633c-9.538,5.026-20.803,6.256-31.462,4.634c-5.029,5.291-12.599,8.05-19.853,7.234
			c-7.254-0.816-14.023-5.188-17.75-11.464c1.264,4.514-0.6,9.731-4.439,12.421c-3.839,2.69-9.379,2.662-13.19-0.068
			c2.524,5.427,0.589,12.204-3.573,16.505s-10.128,6.44-16.054,7.279c-10.912,1.545-21.204-0.746-30.007-7.129
			C174.605,119.563,167.986,111.332,163.965,101.959z"/>
		<g>
			<path style="fill:#EA5C4C;" d="M292.629,278.177c-11.886,3.576-23.804,6.431-35.726,8.614
				c-35.604,6.511-71.421,7.014-107.608,2.533c-8.153-1.017-16.33-2.277-24.517-3.781c14.194-15.642,20.69-35.426,25.397-54.033
				c0.462-1.823,0.912-3.634,1.338-5.425c2.626-10.848,3.962-22.076,5.043-33.08c0.016-0.204,0.046-0.399,0.062-0.604
				c0.278-2.853,0.452-5.793,0.626-8.713c0.016-0.215,0.02-0.418,0.035-0.633c0.635-11.096,0.372-22.275,0.101-33.342
				c-0.006-0.702-0.049-1.403-0.08-2.104c-0.061-1.107-0.122-2.204-0.208-3.3c-0.37-5.839-0.887-11.6-1.551-17.242
				c7.164-0.834,14.283-1.543,21.383-2.109c11.9-0.96,23.753-1.552,35.646-1.809c11.515-0.261,23.069-0.188,34.775,0.174
				c-0.041,5.663,0.086,11.431,0.38,17.273c0.048,1.087,0.109,2.185,0.169,3.282c0.031,0.711,0.087,1.401,0.143,2.101
				c0.963,11.026,1.957,22.173,3.812,33.129c0.034,0.202,0.069,0.414,0.103,0.617c0.492,2.88,0.985,5.781,1.575,8.596
				c0.047,0.202,0.081,0.404,0.127,0.605c2.292,10.856,4.805,21.854,8.446,32.407c0.607,1.766,1.227,3.53,1.872,5.304
				C270.441,244.704,278.472,263.036,292.629,278.177z"/>
			<g>
				<path style="fill:#FFFFFF;" d="M251.85,179.11c-31.529,1.078-63.05,2.349-94.57,3.946c0.635-11.096,0.372-22.275,0.101-33.342
					c-0.006-0.702-0.049-1.403-0.08-2.104c-0.061-1.107-0.122-2.204-0.208-3.3c30.255-2.539,60.267-3.714,90.633-3.712
					c0.048,1.087,0.109,2.185,0.169,3.282c0.031,0.711,0.087,1.401,0.143,2.101C249.001,157.007,249.995,168.153,251.85,179.11z"/>
				<path style="fill:#FFFFFF;" d="M263.974,226.639c-37.923,3.375-75.713,4.891-113.798,4.872c0.462-1.823,0.912-3.634,1.338-5.425
					c2.626-10.848,3.962-22.076,5.043-33.08c32.362-1.359,64.726-2.667,97.098-4.078c2.292,10.856,4.805,21.854,8.446,32.407
					C262.709,223.1,263.329,224.865,263.974,226.639z"/>
			</g>
			<g style="opacity:0.3;">
				<path style="fill:#FFFFFF;" d="M149.296,289.324c-8.153-1.017-16.33-2.277-24.517-3.781
					c15.59-17.169,21.881-39.338,26.735-59.458c2.668-11.043,4.007-22.486,5.105-33.683c0.278-2.853,0.452-5.793,0.626-8.713
					c0.677-11.302,0.416-22.695,0.136-33.975c-0.006-0.702-0.049-1.403-0.08-2.104c-0.382-6.979-0.973-13.836-1.759-20.542
					c7.164-0.834,14.283-1.543,21.383-2.109c0.456,4.644,0.826,9.342,1.058,14.046C180.331,186.759,178.555,244.571,149.296,289.324
					z"/>
			</g>
			<g style="opacity:0.5;">
				<path style="fill:#EA5C4C;" d="M292.629,278.177c-11.886,3.576-23.804,6.431-35.726,8.614
					c-30.943-46.184-40.295-103.834-43.856-154.518c-0.209-3.046-0.368-6.083-0.476-9.123c11.515-0.261,23.069-0.188,34.775,0.174
					c-0.045,6.722,0.142,13.587,0.549,20.555c0.031,0.711,0.087,1.401,0.143,2.101c0.985,11.229,2,22.589,3.915,33.746
					c0.492,2.88,0.985,5.781,1.575,8.596c2.326,11.048,4.861,22.259,8.574,33.012C268.92,241.074,277.082,261.549,292.629,278.177z"
					/>
			</g>
			<path style="fill:#EA5C4C;" d="M250.494,127.093c-32.956-1.028-64.878,0.149-97.634,4.006c-1.369,0.183-2.527-0.635-2.59-1.835
				c-0.167-3.188-0.251-4.781-0.418-7.969c-0.063-1.2,0.989-2.349,2.353-2.558c32.844-4.377,64.495-5.507,97.581-3.982
				c1.404,0.087,2.595,1.135,2.663,2.333c0.181,3.181,0.272,4.772,0.453,7.953C252.969,126.24,251.892,127.155,250.494,127.093z"/>
		</g>
	</g>
	<g>
		<g>
			<path style="fill:#EA5C4C;" d="M333.05,299.755c-8.632,0.001-17.199-6.217-20.462-15.126c-2.868-7.829-1.924-17.372,2.588-26.18
				c4.02-7.847,10.172-14.201,15.622-19.541c0.802-0.786,1.609-1.569,2.416-2.352c4.936-4.789,9.598-9.313,13.345-14.609
				c9.138-12.92,11.833-30.313,7.032-45.392c-1.685-5.292-5.023-12.46-11.348-16.556c-7.757-5.024-18.018-4.144-25.261-2.524
				c-24.547,5.495-45.373,24.523-53.057,48.475c-0.653,2.035-2.832,3.154-4.867,2.502c-2.035-0.653-3.155-2.831-2.503-4.867
				c8.507-26.515,31.562-47.579,58.736-53.663c12.458-2.789,23.233-1.551,31.158,3.58c8.249,5.341,12.446,14.207,14.516,20.704
				c5.521,17.344,2.423,37.349-8.088,52.209c-4.16,5.882-9.301,10.869-14.274,15.694c-0.798,0.774-1.596,1.548-2.389,2.326
				c-5.015,4.914-10.659,10.727-14.149,17.542c-3.532,6.894-4.337,14.18-2.209,19.99c2.277,6.217,8.541,10.616,14.254,9.992
				c2.133-0.217,4.033,1.311,4.261,3.434c0.228,2.126-1.31,4.033-3.435,4.261C334.309,299.723,333.678,299.755,333.05,299.755z"/>
		</g>
		<g>
			<path style="fill:#FFB652;" d="M304.401,271.995c-1.751,0-3.339-1.197-3.762-2.977c-4.085-17.194,2.154-34.145,8.107-45.337
				c4.709-8.853,10.601-17.024,16.299-24.925c2.861-3.966,5.818-8.068,8.559-12.167c6.206-9.284,14.577-23.403,15.618-38.762
				c0.411-6.051-0.46-11.081-2.59-14.953c-3.348-6.086-9.827-9.505-14.673-11.301c-17.494-6.484-38.482-1.374-51.037,12.43
				c-7.344,8.076-12.41,19.522-14.649,33.101c-2.057,12.484-1.69,25.507-1.333,38.101c0.059,2.136-1.623,3.917-3.759,3.977
				c-2.132,0.07-3.917-1.622-3.978-3.759c-0.365-12.959-0.744-26.36,1.435-39.577c2.482-15.056,8.208-27.867,16.56-37.05
				c14.623-16.08,39.072-22.033,59.452-14.479c6.077,2.253,14.267,6.654,18.762,14.827c2.856,5.192,4.044,11.654,3.532,19.207
				c-1.168,17.205-10.208,32.517-16.905,42.538c-2.818,4.214-5.816,8.372-8.716,12.393c-5.546,7.692-11.281,15.644-15.744,24.033
				c-5.327,10.015-10.937,25.069-7.41,39.915c0.493,2.078-0.791,4.164-2.871,4.659C304.998,271.96,304.697,271.995,304.401,271.995z
				"/>
		</g>
	</g>
	<g>
		<path style="fill:#8BB7E4;" d="M344.591,133.265l-7.268,3.274c-1.237,0.556-2.699,0.296-3.671-0.665l-1.536-1.519l-4.747-4.664
			c-0.957-0.947-1.246-2.377-0.734-3.623l14.196-34.252c0.875-2.105,3.559-2.716,5.261-1.203l2.275,2.037l0.712,0.631
			c0.792,0.715,1.193,1.758,1.076,2.814l-3.634,34.502C346.394,131.77,345.653,132.786,344.591,133.265z"/>
		<path style="fill:#619AC9;" d="M344.591,133.265l-7.268,3.274c-1.237,0.556-2.699,0.296-3.671-0.665l-1.536-1.519
			c9.035-8.278,14.595-33.274,16.251-41.705l0.712,0.631c0.792,0.715,1.193,1.758,1.076,2.814l-3.634,34.502
			C346.394,131.77,345.653,132.786,344.591,133.265z"/>
		<polygon style="fill:#3A739B;" points="339.839,138.927 331.414,251.985 303.294,247.499 289.776,245.341 331.387,133.642 
			337.332,137.363 		"/>
		<path style="opacity:0.5;fill:#3A739B;" d="M339.839,138.927l-8.425,113.058l-28.119-4.486
			c18.744-32.197,30.719-91.985,34.037-110.135L339.839,138.927z"/>
		<path style="fill:#8BB7E4;" d="M369.816,175.287l-1.033,0.284l-2.832,0.769c-1.025,0.286-2.116,0.05-2.947-0.619l-26.975-21.814
			c-0.914-0.744-1.368-1.91-1.189-3.071l1.208-7.868c0.208-1.356,1.221-2.435,2.551-2.73l2.204-0.489l6.406-1.414
			c1.311-0.29,2.671,0.24,3.432,1.352l21.028,30.543C372.955,172.102,372.01,174.686,369.816,175.287z"/>
		<path style="fill:#8BB7E4;" d="M331.22,140.773l-2.705,8.399c-0.41,1.28-1.555,2.18-2.902,2.278l-36.977,2.744
			c-2.274,0.168-4.022-1.953-3.436-4.155l0.116-0.441l0.927-3.425c0.275-1.027,1.027-1.857,2.018-2.233l32.458-12.278
			c1.093-0.417,2.332-0.219,3.246,0.525l4.642,3.766l1.547,1.246C331.215,138.052,331.634,139.476,331.22,140.773z"/>
		<path style="fill:#619AC9;" d="M368.783,175.571l-2.832,0.769c-1.025,0.286-2.116,0.05-2.947-0.619l-26.975-21.814
			c-0.914-0.744-1.368-1.91-1.189-3.071l1.208-7.868c0.208-1.356,1.221-2.435,2.551-2.73l2.204-0.489
			C344.984,149.505,354.432,167.865,368.783,175.571z"/>
		<path style="fill:#619AC9;" d="M331.22,140.773l-2.705,8.399c-0.41,1.28-1.555,2.18-2.902,2.278l-36.977,2.744
			c-2.274,0.168-4.022-1.953-3.436-4.155l0.116-0.441c26.906,2.703,39.609-9.276,43.291-13.645l1.547,1.246
			C331.215,138.052,331.634,139.476,331.22,140.773z"/>
		<g>
			<path style="fill:#3A739B;" d="M343.944,140.055c-1.175,4.873-5.57,7.092-10.443,5.917c-4.873-1.175-8.378-5.299-7.203-10.172
				c1.175-4.873,5.218-7.389,10.09-6.214C341.262,130.761,345.119,135.183,343.944,140.055z"/>
			<path style="fill:#8BB7E4;" d="M328.79,137.592c0.09-3.511,2.775-5.676,6.287-5.587c3.511,0.09,6.518,2.402,6.428,5.913
				c-0.09,3.511-2.49,5.829-6.001,5.739C331.992,143.566,328.7,141.103,328.79,137.592z"/>
		</g>
	</g>
	<g>
		<path style="fill:#8BB7E4;" d="M138.737,156.971l-6.966,8.012c-1.186,1.363-3.1,1.862-4.812,1.243l-2.705-0.981l-8.342-2.996
			c-1.686-0.613-2.833-2.181-2.908-3.973l-1.923-49.347c-0.115-3.034,2.791-5.27,5.694-4.388l3.887,1.196l1.213,0.367
			c1.357,0.423,2.424,1.461,2.871,2.804l14.839,43.761C140.085,154.157,139.755,155.799,138.737,156.971z"/>
		<path style="fill:#619AC9;" d="M138.737,156.971l-6.966,8.012c-1.186,1.363-3.1,1.862-4.812,1.243l-2.705-0.981
			c6.314-15.051-0.896-48.386-3.592-59.508l1.213,0.367c1.357,0.423,2.424,1.461,2.871,2.804l14.839,43.761
			C140.085,154.157,139.755,155.799,138.737,156.971z"/>
		<polygon style="fill:#3A739B;" points="188.985,307.933 155.891,317.222 134.906,323.11 122.972,164.791 133.895,166.18 
			136.145,166.47 		"/>
		<path style="opacity:0.5;fill:#3A739B;" d="M155.891,317.222c1.468-49.097-13.911-118.405-21.995-151.042l2.25,0.29l52.84,141.464
			L155.891,317.222z"/>
		<path style="fill:#8BB7E4;" d="M192.678,193.739l-1.092,0.919l-2.997,2.509c-1.08,0.917-2.532,1.24-3.91,0.895l-44.791-11.349
			c-1.521-0.391-2.72-1.548-3.151-3.052l-2.925-10.192c-0.505-1.756,0.12-3.626,1.564-4.724l2.393-1.82l6.961-5.282
			c1.423-1.082,3.365-1.199,4.905-0.279l42.465,25.223C194.7,188.136,194.997,191.789,192.678,193.739z"/>
		<path style="fill:#8BB7E4;" d="M126.749,173.507l1.41,11.668c0.218,1.776-0.666,3.503-2.24,4.373l-43.199,23.933
			c-2.656,1.471-5.955-0.12-6.473-3.111l-0.106-0.598l-0.788-4.659c-0.24-1.396,0.207-2.818,1.196-3.827l32.418-32.947
			c1.09-1.113,2.698-1.565,4.219-1.174l7.715,1.967l2.565,0.645C125.226,170.218,126.527,171.708,126.749,173.507z"/>
		<path style="fill:#619AC9;" d="M191.587,194.658l-2.997,2.509c-1.08,0.917-2.532,1.24-3.91,0.895l-44.791-11.349
			c-1.521-0.391-2.72-1.548-3.151-3.052l-2.925-10.192c-0.505-1.756,0.12-3.626,1.564-4.724l2.393-1.82
			C148.267,176.396,169.931,193.337,191.587,194.658z"/>
		<path style="fill:#619AC9;" d="M126.749,173.507l1.41,11.668c0.218,1.776-0.666,3.503-2.24,4.373l-43.199,23.933
			c-2.656,1.471-5.955-0.12-6.473-3.111l-0.106-0.598c34.054-11.731,42.742-33.303,44.759-40.64l2.565,0.645
			C125.226,170.218,126.527,171.708,126.749,173.507z"/>
		<g>
			<path style="fill:#3A739B;" d="M141.741,165.545c1.295,6.549-2.784,11.684-9.333,12.979c-6.549,1.295-13.089-1.74-14.384-8.289
				c-1.295-6.549,2.192-11.847,8.741-13.142C133.314,155.798,140.446,158.996,141.741,165.545z"/>
			<path style="fill:#8BB7E4;" d="M122.036,171.013c-1.848-4.297,0.193-8.414,4.49-10.262c4.297-1.848,9.224-0.729,11.072,3.568
				c1.849,4.297,0.237,8.439-4.06,10.287C129.241,176.455,123.885,175.311,122.036,171.013z"/>
		</g>
	</g>
	<g>
		<g>
			<polygon style="fill:#619AC9;" points="123.975,249.321 141.365,421.381 378.784,410.976 389.247,228.597 			"/>
			<polygon style="fill:#245472;" points="135.908,262.935 150.888,413.311 369.68,399.284 379.095,244.744 			"/>
		</g>
		<g>
			<g>
				<polygon style="fill:#A1C5EB;" points="228.807,385.311 228.722,383.998 321.825,378.063 323.224,354.611 324.537,354.688 
					323.068,379.301 				"/>
			</g>
			<g>
				<polygon style="fill:#A1C5EB;" points="188.006,387.914 179.946,314.22 254.556,307.89 254.667,309.2 181.4,315.417 
					189.178,386.522 217.015,384.747 217.099,386.06 				"/>
			</g>
			<g>
				<polygon style="fill:#A1C5EB;" points="325.747,334.194 324.434,334.116 326.284,303.121 268.242,308.043 268.174,307.388 
					268.187,306.73 327.686,301.683 				"/>
			</g>
			<g>
				<path style="fill:#A1C5EB;" d="M254.387,316.249l-0.834-14.798l16.186,5.796L254.387,316.249z M254.979,303.357l0.6,10.667
					l11.067-6.487L254.979,303.357z"/>
			</g>
			<g>
				
					<rect x="285.438" y="352.908" transform="matrix(0.9997 -0.0248 0.0248 0.9997 -9.0265 7.2197)" style="fill:#A1C5EB;" width="1.316" height="28.08"/>
			</g>
			<g>
				
					<rect x="284.326" y="306.002" transform="matrix(0.9997 -0.025 0.025 0.9997 -7.9559 7.2127)" style="fill:#A1C5EB;" width="1.316" height="32.684"/>
			</g>
			<g>
				<path style="fill:#A1C5EB;" d="M289.645,353.575h-8.315l-1.284-15.555h9.599V353.575z M282.54,352.26h5.789v-12.924h-6.856
					L282.54,352.26z"/>
			</g>
			<g>
				<path style="fill:#A1C5EB;" d="M329.331,355.311h-9.691l-0.716-22.307l10.406,0.826V355.311z M320.914,353.996h7.101v-18.95
					l-7.729-0.613L320.914,353.996z"/>
			</g>
			<g>
				<path style="fill:#8BB7E4;" d="M341.436,354.265c-4.726,0.001-10.45-2.942-13.096-4.465l0.655-1.141
					c3.195,1.841,11.094,5.879,15.45,3.666c2.258-1.141,3.664-3.403,3.859-6.207c0.266-3.815-1.696-7.664-5.12-10.043
					c-4.484-3.12-10.792,0.134-14.153,2.351l-0.724-1.097c3.638-2.402,10.51-5.897,15.628-2.333
					c3.804,2.641,5.981,6.938,5.683,11.213c-0.229,3.278-1.896,5.935-4.577,7.29C343.972,354.04,342.742,354.265,341.436,354.265z"
					/>
			</g>
			<g>
				
					<rect x="267.773" y="300.102" transform="matrix(0.9993 -0.0384 0.0384 0.9993 -11.5743 10.5428)" style="fill:#A1C5EB;" width="1.316" height="12.435"/>
			</g>
			<g>
				<path style="fill:#A1C5EB;" d="M269.53,366.154c-1.278,0-2.794-0.184-3.73-0.924c-0.541-0.426-0.852-1.008-0.902-1.685
					c-0.086-1.184,0.374-1.868,0.775-2.232c0.073-0.067,0.15-0.129,0.23-0.185c-0.301-0.185-0.585-0.414-0.822-0.695
					c-0.572-0.677-0.79-1.522-0.65-2.513c0.212-1.505,0.993-2.482,1.873-3.084c-0.37-0.168-0.731-0.396-1.037-0.704
					c-0.592-0.596-0.875-1.371-0.84-2.302c0.072-1.938,1.236-3.369,2.188-4.222c-0.437-0.171-0.897-0.432-1.284-0.834
					c-0.636-0.659-0.939-1.538-0.901-2.611c0.062-1.679,0.897-2.85,1.813-3.593c-0.193-0.099-0.384-0.222-0.566-0.376
					c-0.827-0.7-1.246-1.815-1.246-3.313c0-2.248,0.97-3.597,2-4.332c-0.975-0.619-2-1.877-2-4.427c0-1.391,0.439-2.441,1.304-3.12
					c1.444-1.13,3.563-0.766,4.016-0.671h25.452c0.177,0,0.345,0.071,0.47,0.198c0.123,0.126,0.191,0.297,0.188,0.474l-0.84,40.339
					c-0.008,0.357-0.299,0.644-0.658,0.644l-22.617,0.001C271.462,366.031,270.576,366.154,269.53,366.154z M268.022,361.869
					c-0.478,0-1.101,0.085-1.467,0.419c-0.271,0.248-0.384,0.628-0.344,1.163c0.022,0.311,0.15,0.547,0.403,0.748
					c1.107,0.876,3.963,0.645,4.973,0.483c0.035-0.006,0.071-0.009,0.105-0.009l22.025-0.001l0.812-39.024h-24.852
					c-0.051,0-0.104-0.006-0.154-0.018c-0.019-0.005-1.901-0.442-2.98,0.411c-0.529,0.418-0.798,1.118-0.798,2.082
					c0,3.473,2.207,3.696,2.459,3.71c0.335,0.018,0.606,0.286,0.624,0.622c0.018,0.335-0.217,0.631-0.549,0.683
					c-0.099,0.018-2.534,0.486-2.534,3.743c0,1.087,0.26,1.861,0.772,2.301c0.646,0.556,1.545,0.432,1.553,0.425
					c0.334-0.055,0.669,0.171,0.744,0.51c0.074,0.339-0.125,0.677-0.459,0.772c-0.1,0.03-2.518,0.773-2.61,3.323
					c-0.026,0.712,0.148,1.251,0.532,1.651c0.7,0.724,1.886,0.745,1.897,0.745c0.298,0,0.559,0.202,0.635,0.489
					c0.077,0.289-0.051,0.593-0.311,0.741c-0.026,0.014-2.663,1.544-2.755,4.041c-0.022,0.559,0.129,0.992,0.456,1.324
					c0.817,0.826,2.436,0.793,2.454,0.793c0.348-0.023,0.658,0.27,0.674,0.626c0.017,0.357-0.253,0.663-0.61,0.689
					c-0.104,0.008-2.623,0.239-2.983,2.794c-0.086,0.613,0.028,1.096,0.352,1.48c0.555,0.656,1.594,0.893,2.177,0.975
					c0.269,0.013,0.459,0.042,0.516,0.051c0.34,0.058,0.579,0.369,0.546,0.713c-0.035,0.344-0.334,0.613-0.673,0.594
					c-0.027-0.001-0.217-0.008-0.504-0.045C268.107,361.87,268.066,361.869,268.022,361.869z"/>
			</g>
			<g>
				<path style="fill:#A1C5EB;" d="M228.77,389.568c-0.063,0-0.127-0.009-0.189-0.027l-11.718-3.507
					c-0.263-0.08-0.45-0.313-0.468-0.588c-0.017-0.275,0.137-0.53,0.389-0.644l11.718-5.226c0.204-0.089,0.438-0.072,0.627,0.05
					c0.186,0.121,0.299,0.329,0.299,0.551v8.733c0,0.208-0.098,0.403-0.265,0.528C229.047,389.523,228.91,389.568,228.77,389.568z
					 M218.939,385.281l9.173,2.745v-6.835L218.939,385.281z"/>
			</g>
			<g>
				<path style="fill:#A1C5EB;" d="M216.724,390.126c-0.342,0-0.631-0.265-0.656-0.611l-0.56-8.004
					c-0.025-0.362,0.248-0.677,0.611-0.703c0.353-0.036,0.677,0.248,0.702,0.61l0.56,8.004c0.025,0.362-0.248,0.677-0.611,0.703
					C216.755,390.126,216.74,390.126,216.724,390.126z"/>
			</g>
			<g>
				<path style="fill:#A1C5EB;" d="M206.537,364.155c-0.333,0-0.617-0.252-0.653-0.588l-2.717-25.446
					c-0.039-0.36,0.22-0.682,0.58-0.723l10.33-1.172c0.175-0.022,0.354,0.033,0.493,0.146c0.137,0.114,0.223,0.279,0.237,0.456
					l2.015,25.834c0.028,0.361-0.242,0.677-0.602,0.706l-9.627,0.784C206.573,364.154,206.555,364.155,206.537,364.155z
					 M204.544,338.631l2.58,24.159l8.335-0.678l-1.911-24.502L204.544,338.631z"/>
			</g>
			<g>
				<path style="fill:#A1C5EB;" d="M222.099,363.26c-0.154,0-0.303-0.054-0.423-0.153c-0.135-0.114-0.22-0.277-0.232-0.453
					c-0.474-5.967-2.018-25.463-2.018-25.773c0-0.331,0.247-0.611,0.576-0.653l8.172-1.034c0.173-0.027,0.349,0.027,0.488,0.135
					c0.137,0.108,0.227,0.267,0.248,0.442l3.023,25.861c0.021,0.175-0.031,0.351-0.141,0.488c-0.112,0.137-0.272,0.225-0.448,0.243
					l-9.18,0.895C222.141,363.259,222.12,363.26,222.099,363.26z M220.782,337.454c0.225,3.002,1.291,16.5,1.919,24.429l7.846-0.766
					l-2.868-24.535L220.782,337.454z"/>
			</g>
			<g>
				<path style="fill:#A1C5EB;" d="M208.465,338.182c-0.326,0-0.609-0.241-0.652-0.574l-1.48-11.53
					c-0.046-0.357,0.206-0.686,0.563-0.735l7.657-1.053l-1.168-11.692c-0.036-0.361,0.227-0.683,0.589-0.719
					c0.367-0.035,0.684,0.227,0.72,0.588l1.231,12.323c0.035,0.352-0.215,0.669-0.564,0.717l-7.639,1.051l1.398,10.884
					c0.046,0.36-0.209,0.69-0.569,0.736C208.521,338.181,208.493,338.182,208.465,338.182z"/>
			</g>
			<g>
				<path style="fill:#A1C5EB;" d="M224.449,336.504c-0.325,0-0.609-0.242-0.651-0.574l-1.455-11.326l-6.988,0.904
					c-0.364,0.044-0.691-0.208-0.737-0.568c-0.046-0.361,0.208-0.691,0.568-0.737l7.641-0.988c0.173-0.024,0.349,0.024,0.487,0.132
					c0.137,0.107,0.229,0.263,0.25,0.437l1.539,11.979c0.046,0.36-0.208,0.69-0.569,0.736
					C224.505,336.502,224.477,336.504,224.449,336.504z"/>
			</g>
		</g>
		<g>
			<polygon style="fill:#3A739B;" points="289.008,264.641 368.329,260.477 368.329,266.728 289.008,271.994 			"/>
			<polygon style="fill:#3A739B;" points="315.464,276.226 366.064,274.21 365.617,279.427 315.464,280.247 			"/>
			<polygon style="fill:#3A739B;" points="316.585,283.895 364.161,282.463 364.161,286.394 317.023,287.82 			"/>
		</g>
		<g>
			<g>
				<path style="fill:#3A739B;" d="M179.711,291.569l39.32-4.144c-0.157-1.368-0.312-2.735-0.474-4.1l-38.85,5.021
					C179.713,289.418,179.711,290.493,179.711,291.569z"/>
				<path style="fill:#3A739B;" d="M179.833,297.201l37.824-3.987c-0.177-1.367-0.675-2.646-0.834-4.016l-37.097,4.795
					C179.741,295.064,179.773,296.134,179.833,297.201z"/>
				<path style="fill:#3A739B;" d="M180.502,302.741c0.003,0.012,0.001,0.023,0.004,0.035l40.018-4.218
					c-0.231-1.364-0.438-2.734-0.627-4.107l-39.862,5.152C180.148,300.653,180.291,301.7,180.502,302.741z"/>
			</g>
		</g>
	</g>
	<g>
		<path style="fill:#3A739B;" d="M400.524,276.233l2.617-3.751c0.689-0.987,1.868-1.51,3.061-1.347
			c2.474,0.337,6.748,1.043,9.533,2.185c2.702,1.109,5.15,3.198,6.513,4.503c0.721,0.691,1.07,1.681,0.956,2.674l-0.511,4.47
			c-0.238,2.077-2.362,3.378-4.32,2.645c-4.495-1.683-11.899-4.515-16.526-6.606C400.008,280.175,399.37,277.887,400.524,276.233z"
			/>
		<path style="fill:#FFAD00;" d="M408.317,381.443c-3.705,1.727-11.911,2.837-29.339-3.551
			c-18.435-6.756-25.535-14.137-28.219-18.351c-1.171-1.826-1.304-4.123-0.375-6.083l24.608-51.801l10.902-22.942
			c0.93-1.96,2.8-3.283,4.957-3.555c15.209-1.932,32.998,9.107,40.465,14.369c2.172,1.528,3.156,4.246,2.454,6.811l-6.487,23.748
			l-15.682,57.375C411.123,379.195,409.947,380.686,408.317,381.443z"/>
		<path style="fill:#3A739B;" d="M408.317,381.443c-3.705,1.727-11.911,2.837-29.339-3.551
			c-18.435-6.756-25.535-14.137-28.219-18.351c-1.171-1.826-1.304-4.123-0.375-6.083l24.608-51.801
			c7.389,0.116,17.432,0.98,26.26,4.234c10.861,4.008,19.481,9.213,26.03,14.196l-15.682,57.375
			C411.123,379.195,409.947,380.686,408.317,381.443z"/>
		<path style="opacity:0.3;fill:#EA5C4C;" d="M411.601,377.462l15.682-57.375l6.487-23.748c0.702-2.565-0.282-5.283-2.454-6.811
			c-5.014-3.533-14.682-9.665-25.097-12.732c5.115,2.641,9.45,5.477,12.289,7.477c2.172,1.528,3.156,4.246,2.453,6.811
			l-6.487,23.748l-15.682,57.375c-0.478,1.733-1.654,3.223-3.284,3.981c-3.523,1.643-11.123,2.721-26.848-2.67
			c2.969,1.462,6.382,2.932,10.316,4.374c17.428,6.388,25.634,5.278,29.339,3.551C409.947,380.686,411.123,379.195,411.601,377.462z
			"/>
		<path style="opacity:0.3;fill:#FFFFFF;" d="M357.418,366.021l30.075-63.309l12.952-27.256c-3.232-0.536-6.467-0.694-9.593-0.296
			c-2.157,0.272-4.027,1.595-4.957,3.555l-10.902,22.942l-24.608,51.801c-0.93,1.96-0.796,4.258,0.375,6.083
			c1.157,1.816,3.137,4.221,6.488,6.909C357.304,366.308,357.351,366.162,357.418,366.021z"/>
		<path style="fill:#FFFFFF;" d="M411.291,296.095l-1.94-0.732c-0.568-0.214-0.828-0.873-0.563-1.42
			c0.489-1.008,0.916-1.889,1.219-2.516c0.259-0.536,0.012-1.176-0.539-1.402l-4.438-1.821c-0.56-0.23-1.196,0.069-1.377,0.646
			l-0.897,2.857c-0.178,0.566-0.795,0.866-1.35,0.657l-1.887-0.712c-0.586-0.221-1.232,0.126-1.371,0.736l-0.34,1.49
			c-0.108,0.473,0.129,0.958,0.568,1.164l2.088,0.979c0.468,0.219,0.702,0.751,0.547,1.244l-1.237,3.938
			c-0.153,0.488,0.069,1.013,0.529,1.236c1.2,0.581,3.356,1.586,3.562,1.396c0.104-0.096,1-1.878,2.101-4.113
			c0.249-0.504,0.857-0.72,1.366-0.481l2.09,0.98c0.513,0.241,1.125,0.022,1.369-0.489l1.066-2.225
			C412.119,296.961,411.857,296.309,411.291,296.095z"/>
		<path style="fill:#FFFFFF;" d="M374.228,351.552l-0.742,2.446c-0.142,0.47,0.096,0.971,0.55,1.158l12.53,5.141
			c0.487,0.2,1.043-0.033,1.243-0.52l0.966-2.354c0.2-0.487-0.033-1.043-0.52-1.243l-12.755-5.233
			C374.982,350.734,374.391,351.015,374.228,351.552z"/>
	</g>
	<g>
		<path style="fill:#A1C5EB;" d="M224.299,190.672l-3.033,70.221c-0.314,7.262,5.036,13.532,12.257,14.365l39.561,4.565
			c6.861,0.792,13.257-3.589,14.999-10.271l17.837-68.42c1.973-7.569-2.698-15.279-10.326-17.008
			c-14.724-3.336-38.558-7.732-58.306-6.686C230.206,177.812,224.605,183.586,224.299,190.672z"/>
		<path style="opacity:0.5;fill:#A1C5EB;" d="M295.594,184.123c-1.109-0.251-2.286-0.51-3.493-0.77
			c2.027,3.375,2.754,7.533,1.679,11.655l-19.542,74.959c-1.038,3.982-3.591,7.208-6.908,9.192l5.754,0.664
			c6.86,0.792,13.257-3.589,14.999-10.271l17.837-68.42C307.893,193.562,303.223,185.852,295.594,184.123z"/>
		<path style="fill:#E1F1FF;" d="M293.071,202.197l-3.582,14.817c-0.844,3.504-4.215,5.781-7.775,5.252l-40.754-6.058
			c-3.321-0.494-5.819-3.301-5.926-6.662l-0.442-14.202c-0.111-3.665,2.648-6.826,6.315-7.142c20.665-1.8,38.632,2.827,47.576,5.771
			C291.925,195.1,293.917,198.683,293.071,202.197z"/>
		<path style="fill:#3A739B;" d="M273.329,248.65c-1.362,9.162-9.057,15.442-18.219,14.08c-9.162-1.362-16.32-9.85-14.959-19.011
			c1.362-9.162,8.936-14.466,18.098-13.104S274.691,239.488,273.329,248.65z"/>
		<path style="fill:#EA5C4C;" d="M286.241,230.803c-0.375,2.521-2.492,4.249-5.013,3.874c-2.521-0.375-4.491-2.71-4.116-5.231
			c0.375-2.521,2.459-3.98,4.98-3.605C284.613,226.215,286.616,228.282,286.241,230.803z"/>
		<path style="fill:#E1F1FF;" d="M242.254,224.265c-0.375,2.521-2.492,4.249-5.013,3.874c-2.521-0.375-4.49-2.71-4.116-5.231
			c0.375-2.521,2.459-3.98,4.979-3.605C240.626,219.677,242.629,221.744,242.254,224.265z"/>
		<g>
			<path style="fill:#8BB7E4;" d="M260.149,227.426c-0.122,0.824-0.814,1.389-1.638,1.266c-0.824-0.122-1.468-0.886-1.345-1.71
				c0.122-0.824,0.804-1.301,1.627-1.178C259.616,225.926,260.271,226.602,260.149,227.426z"/>
			<path style="fill:#8BB7E4;" d="M270.633,232.043c-0.122,0.824-0.814,1.389-1.638,1.266c-0.824-0.122-1.468-0.886-1.345-1.71
				c0.122-0.824,0.804-1.301,1.627-1.178C270.1,230.544,270.755,231.219,270.633,232.043z"/>
			<path style="fill:#8BB7E4;" d="M277.239,240.499c-0.122,0.824-0.815,1.389-1.638,1.266c-0.824-0.122-1.468-0.886-1.345-1.71
				c0.122-0.824,0.804-1.301,1.627-1.178C276.707,239,277.361,239.675,277.239,240.499z"/>
			<path style="fill:#8BB7E4;" d="M279.551,252.373c-0.122,0.824-0.815,1.389-1.638,1.266c-0.824-0.122-1.468-0.886-1.345-1.71
				c0.122-0.824,0.804-1.301,1.628-1.178C279.019,250.874,279.673,251.549,279.551,252.373z"/>
			<path style="fill:#8BB7E4;" d="M273.804,262.301c-0.122,0.824-0.814,1.389-1.638,1.266c-0.824-0.122-1.468-0.886-1.345-1.71
				c0.122-0.824,0.804-1.301,1.628-1.178C273.271,260.802,273.926,261.477,273.804,262.301z"/>
			<path style="fill:#8BB7E4;" d="M261.667,268.13c-0.332,0.681-1.121,1.03-1.959,0.649c-0.573-0.261-0.954-0.869-0.888-1.495
				c0.082-0.78,0.651-1.27,1.38-1.272C261.456,266.009,262.218,267.001,261.667,268.13z"/>
			<path style="fill:#8BB7E4;" d="M250.22,266.018c-0.122,0.824-0.814,1.389-1.638,1.266c-0.824-0.122-1.468-0.886-1.345-1.71
				c0.122-0.824,0.803-1.301,1.627-1.178C249.688,264.518,250.342,265.194,250.22,266.018z"/>
			<path style="fill:#8BB7E4;" d="M240.688,260.17c-0.122,0.824-0.814,1.389-1.638,1.266s-1.468-0.886-1.345-1.71
				c0.122-0.824,0.804-1.301,1.628-1.178C240.156,258.671,240.811,259.346,240.688,260.17z"/>
			<path style="fill:#8BB7E4;" d="M237.587,250.08c-0.123,0.824-0.815,1.389-1.638,1.266c-0.824-0.123-1.468-0.886-1.345-1.71
				c0.122-0.824,0.803-1.301,1.627-1.178C237.055,248.581,237.709,249.256,237.587,250.08z"/>
			<path style="fill:#8BB7E4;" d="M238.318,237.576c-0.123,0.824-0.814,1.389-1.638,1.266c-0.824-0.123-1.468-0.886-1.345-1.71
				c0.123-0.824,0.804-1.301,1.628-1.178C237.786,236.076,238.441,236.752,238.318,237.576z"/>
			<path style="fill:#8BB7E4;" d="M246.129,229.12c-0.123,0.824-0.815,1.389-1.638,1.266c-0.824-0.122-1.468-0.886-1.345-1.71
				c0.122-0.824,0.803-1.301,1.627-1.178C245.597,227.62,246.251,228.296,246.129,229.12z"/>
		</g>
		<path style="fill:#619AC9;" d="M262.585,237.673l-16.281,14.841c-0.834,0.76-0.954,2.029-0.277,2.932l0,0
			c0.736,0.983,2.136,1.168,3.103,0.411l17.347-13.58c1.292-1.012,1.539-2.871,0.555-4.184l0,0
			C265.964,236.669,263.901,236.474,262.585,237.673z"/>
		<path style="fill:#3A739B;" d="M285.471,204.628l-5.934,8.529c0,0-3.465-2.883-10.004-5.156c-1.769-0.605-3.768-1.176-5.979-1.632
			c-10.395-2.132-20.789,1.322-20.789,1.322l-2.048-9.128c0,0,10.192-4.726,21.905-2.907c3.596,0.554,7.1,1.593,10.241,2.774
			C280.137,201.154,285.471,204.628,285.471,204.628z"/>
		<polygon style="fill:#EA5C4C;" points="261.433,219.251 255.987,218.441 263.28,198.796 		"/>
		<path style="fill:#EA5C4C;" d="M285.471,204.628l-5.934,8.529c0,0-3.465-2.883-10.004-5.156c1.1-3.251,2.436-7.043,3.33-9.571
			C280.137,201.154,285.471,204.628,285.471,204.628z"/>
	</g>
	<g>
		<g>
			<path style="fill:#3A739B;" d="M375.538,210.952c-0.399-0.576-0.886-1.105-1.461-1.565c-3.18-2.544-7.819-2.033-10.365,1.145
				c-2.818,3.518-27.366,34.97-21.609,55.958c1.077,3.93,5.138,6.239,9.066,5.163c3.93-1.078,6.242-5.137,5.164-9.066
				c-2.703-9.856,9.422-30.98,18.896-42.831C377.312,217.149,377.343,213.562,375.538,210.952z"/>
		</g>
		<path style="fill:#619AC9;" d="M353.303,262.657c0,0,13.008,15.114,0.441,26.891c-7.413,6.943-16.336,6.448-22.376,4.866
			c-4.228-1.074-7.059-2.687-7.059-2.687l17.683-17.735L353.303,262.657z"/>
		<path style="fill:#619AC9;" d="M328.163,259.678c13.589-10.619,26.927,0.587,26.927,0.587l-13.466,11.77l-19.97,17.473
			c0,0-1.553-4.197-1.813-9.759C319.547,273.426,320.921,265.33,328.163,259.678z"/>
		<path style="fill:#E1F1FF;" d="M341.994,273.992c0.667,1.528,1.347,3.632,1.803,6.15c0.763,4.26-7.749,10.941-12.428,14.272
			c-4.228-1.074-7.059-2.687-7.059-2.687L341.994,273.992z"/>
		<path style="fill:#E1F1FF;" d="M330.969,270.283c3.427-1.594,8.213,0.468,10.656,1.753l-19.97,17.473c0,0-1.553-4.197-1.813-9.759
			C323.43,276.015,328.242,271.547,330.969,270.283z"/>
		<path style="fill:#EA5C4C;" d="M389.464,172.729c10.112-3.434,35.125,25.987,11.34,34.878c-2.215,0.827-4.332,1.815-6.352,2.923
			c-19.656,10.808-29.967,33.24-29.967,33.24l-24.444-13.9c3.414-5.57,11.417-7.024,11.417-7.024
			c2.024-5.627,9.006-25.457,21.552-38.843C377.699,178.974,383.181,174.859,389.464,172.729z"/>
		<g>
			<path style="fill:#619AC9;" d="M402.749,238.824c0.567,0.412,1.083,0.913,1.529,1.498c2.467,3.24,1.845,7.865-1.394,10.335
				c-3.585,2.733-35.618,26.518-56.461,20.258c-3.903-1.171-6.114-5.286-4.943-9.187c1.172-3.903,5.286-6.117,9.188-4.944
				c9.789,2.94,31.198-8.675,43.273-17.862C396.596,236.902,400.183,236.957,402.749,238.824z"/>
		</g>
		<path style="fill:#CBE3F8;" d="M348.002,263.914c1.11-1.084,2.889-1.062,3.972,0.048c1.084,1.11,1.062,2.889-0.048,3.972
			c-1.11,1.084-2.888,1.062-3.972-0.048C346.871,266.776,346.892,264.997,348.002,263.914z"/>
		<path style="fill:#EA5C4C;" d="M441.296,225.823c-2.66,7.288-8.017,13.401-14.335,18.43
			c-13.488,10.773-31.366,16.587-36.681,18.36c0,0-1.655,7.955-7.296,11.245l-13.309-24.771c0,0,20.696-8.918,32.381-26.646
			c1.801-2.719,3.385-5.64,4.645-8.794C416.161,190.083,444.972,215.796,441.296,225.823z"/>
		<path style="fill:#FFB652;" d="M441.296,225.823c-2.66,7.288-8.017,13.401-14.335,18.43c-4.538-7.543-12.046-15.798-24.343-21.537
			c-0.188-0.092-0.375-0.183-0.563-0.275c1.801-2.719,3.385-5.64,4.645-8.794C416.161,190.083,444.972,215.796,441.296,225.823z"/>
		<path style="fill:#FFB652;" d="M389.464,172.729c10.112-3.434,35.125,25.987,11.34,34.878c-2.215,0.827-4.332,1.815-6.352,2.923
			c-0.036-0.298-0.072-0.597-0.128-0.895c-1.212-7.374-6.895-13.014-12.11-17.914c-2.917-2.747-5.994-5.316-9.203-7.719
			C377.699,178.974,383.181,174.859,389.464,172.729z"/>
		<path style="opacity:0.5;fill:#EA5C4C;" d="M351.46,222.84c0,0-7.999,1.462-11.419,7.024l12.676,7.214
			c7.48-18.36,23.102-49.85,47.888-60.222c-3.923-3.302-8.169-5.136-11.135-4.131C366.392,180.544,354.246,215.1,351.46,222.84z"/>
		<path style="opacity:0.5;fill:#EA5C4C;" d="M406.695,213.646c-9.461,23.568-37.023,35.443-37.023,35.443l5.175,9.625
			c8.08-4.113,30.51-17.158,39.287-39.022c3.923-9.773,10.762-12.115,17.679-10.593C423.47,202.728,412.019,200.385,406.695,213.646
			z"/>
	</g>
	<g>
		<g>
			<path style="fill:#3A739B;" d="M131.442,432.823l-6.585-1.536l-1.474-0.347l-3.593-0.835l-1.548-0.359l-3.693-0.868L113,428.519
				l-2.204-0.519c-1.649-0.392-2.808-1.854-2.802-3.554l0.078-9.573c0.009-1.806,1.367-3.333,3.153-3.556l1.133-0.138l1.493-0.197
				l3.65-0.461l1.507-0.195l5.608-0.715l1.522-0.192l5.438-0.699c2.145-0.281,4.047,1.37,4.082,3.533l0.216,16.992
				C135.909,431.592,133.72,433.355,131.442,432.823z"/>
			<path style="opacity:0.5;fill:#8BB7E4;" d="M113.851,410.983l-1.493,0.197c-0.335,5.791-0.123,11.585,0.642,17.339l1.548,0.359
				C113.72,422.962,113.485,416.951,113.851,410.983z M119.008,410.327l-1.507,0.195c-0.277,6.424-0.023,12.848,0.741,19.225
				l1.548,0.359C118.965,423.552,118.7,416.928,119.008,410.327z M126.138,409.42l-1.522,0.192
				c-0.801,7.077-1.215,14.207-1.234,21.328l1.474,0.347C124.861,423.981,125.292,416.672,126.138,409.42z"/>
			<path style="fill:#FFB652;" d="M195.819,405.646l32.358,0.351c2.524,0.027,4.498,2.185,4.303,4.701l0,0
				c-0.192,2.474-2.406,4.289-4.869,3.994l-31.773-3.806L195.819,405.646z"/>
			<path style="fill:#FFB652;" d="M196.233,431.964l26.076,2.467c3.226,0.305,5.509,3.293,4.956,6.486l0,0
				c-0.555,3.201-3.723,5.247-6.869,4.435l-23.863-6.16L196.233,431.964z"/>
			<path style="fill:#3A739B;" d="M178.3,392.332l-30.943,3.005c-9.367,0.91-16.587,8.657-16.837,18.064l-0.328,12.361
				c-0.246,9.254,6.335,17.287,15.456,18.867l31.565,5.469L178.3,392.332z"/>
			<path style="opacity:0.5;fill:#FFFFFF;" d="M147.337,402.18l30.834-2.995l0.129-6.853l-30.943,3.005
				c-9.023,0.876-16.036,8.103-16.762,17.042C134.218,406.774,140.271,402.866,147.337,402.18z"/>
			<path style="fill:#3A739B;" d="M180.581,396.08l19.174-1.164c4.47-0.271,8.165,3.436,7.88,7.905l-2.725,42.645
				c-0.282,4.419-4.336,7.615-8.699,6.86l-19.284-3.341L180.581,396.08z"/>
			<path style="opacity:0.5;fill:#FFFFFF;" d="M200.517,399.388c2.947-0.179,5.577,1.248,7.115,3.48l0.003-0.049
				c0.286-4.468-3.41-8.176-7.88-7.905l-19.174,1.164l-0.314,4.538L200.517,399.388z"/>
			<path style="opacity:0.5;fill:#A1C5EB;" d="M205.028,443.619c-1.964,2.287-5.047,3.54-8.275,2.981l-19.43-3.366l-0.397,5.749
				l19.284,3.341c4.363,0.756,8.417-2.441,8.699-6.86L205.028,443.619z"/>
			<path style="opacity:0.5;fill:#A1C5EB;" d="M177.377,441.418l-9.578-1.659l1.098-40.963l-6.922,39.954l-18.973-3.287
				c-5.102-0.884-9.507-3.513-12.69-7.19c0.883,8.16,7.053,14.922,15.336,16.357l31.565,5.468L177.377,441.418z"/>
			<path style="fill:#3A739B;" d="M169.098,391.297l-1.548,57.783c-0.057,2.12,1.365,3.995,3.422,4.513l8.498,2.14
				c2.741,0.69,5.438-1.272,5.625-4.093l3.904-58.987c0.163-2.461-1.673-4.599-4.13-4.811l-10.853-0.936
				C171.417,386.682,169.168,388.691,169.098,391.297z"/>
			<path style="opacity:0.5;fill:#FFFFFF;" d="M169.041,393.432c1.1-0.877,2.511-1.371,4.032-1.24l13.673,1.179
				c0.78,0.067,1.51,0.29,2.162,0.633l0.09-1.351c0.163-2.461-1.673-4.599-4.13-4.811l-10.853-0.936
				c-2.597-0.224-4.847,1.785-4.917,4.391L169.041,393.432z"/>
			<path style="opacity:0.5;fill:#A1C5EB;" d="M185.335,447.987c-1.113,1.727-3.231,2.695-5.392,2.151l-9.348-2.354
				c-1.259-0.317-2.287-1.106-2.954-2.137l-0.092,3.433c-0.057,2.12,1.365,3.995,3.422,4.513l8.498,2.14
				c2.742,0.69,5.438-1.272,5.625-4.093L185.335,447.987z"/>
		</g>
		<g>
			<path style="fill:#3A739B;" d="M394.298,393.946l2.408,9.857c0.496,1.977-0.474,4.015-2.236,4.916
				c-0.217,0.111-0.438,0.208-0.681,0.281l-0.727,0.232l-4.01,1.274l-1.412,0.452l-4.368,1.38l-1.426,0.457l-6.876,2.191
				c-2.34,0.745-4.827-0.576-5.524-2.914l-4.183-14.029c-0.791-2.654,1.053-5.375,3.808-5.618l7.808-0.688l1.524-0.126l3.548-0.308
				l1.506-0.137l4.597-0.402l1.51-0.122l0.105-0.016C391.814,390.438,393.782,391.851,394.298,393.946z"/>
			<path style="opacity:0.5;fill:#8BB7E4;" d="M378.402,391.609c1.984,6.812,3.61,13.732,4.868,20.729l-1.426,0.457
				c-1.274-7.102-2.934-14.136-4.967-21.059L378.402,391.609z M381.95,391.301c1.893,6.559,3.8,13.113,5.689,19.657l1.412-0.452
				c-1.859-6.444-3.732-12.883-5.595-19.341L381.95,391.301z M388.053,390.763c1.664,6.158,3.343,12.312,5.007,18.47l0.727-0.232
				c0.244-0.073,0.465-0.17,0.681-0.281c-1.64-6.025-3.28-12.049-4.906-18.078L388.053,390.763z"/>
			<path style="fill:#3A739B;" d="M294.601,396.248c4.943,12.519,16.702,42.279,21.236,53.753c1.02,2.581,3.901,3.88,6.514,2.944
				l34.109-12.217l-19.844-59.422l-38.285,8.023C295.211,389.982,293.43,393.283,294.601,396.248z"/>
			<path style="opacity:0.5;fill:#FFFFFF;" d="M297.323,396.009l41.312-8.658l-2.019-6.047l-38.285,8.023
				c-3.119,0.654-4.901,3.955-3.73,6.919c0.096,0.243,0.199,0.503,0.299,0.759C295.619,396.545,296.429,396.197,297.323,396.009z"/>
			<path style="opacity:0.5;fill:#A1C5EB;" d="M318.465,445.022c-1.572,0.563-3.216,0.466-4.647-0.13
				c0.768,1.943,1.45,3.67,2.019,5.109c1.02,2.581,3.901,3.88,6.514,2.944l34.109-12.216l-2.778-8.319L318.465,445.022z"/>
			<path style="fill:#3A739B;" d="M332.998,386.072l24.711-4.309c6.187-1.079,12.242,2.492,14.292,8.428l7.528,21.803
				c2.039,5.906-0.481,12.422-5.969,15.409c-10.416,5.671-25.704,13.852-25.92,13.129
				C347.312,439.433,332.998,386.072,332.998,386.072z"/>
			<path style="opacity:0.5;fill:#FFFFFF;" d="M358.881,387.871c5.258-0.917,10.431,0.946,13.913,4.617l-0.793-2.297
				c-2.05-5.936-8.105-9.508-14.292-8.428l-24.711,4.309c0,0,0.629,2.344,1.618,6.031L358.881,387.871z"/>
			<path style="fill:#245472;" d="M350.712,398.037l15.027-2.994c0.686-0.137,1.355,0.297,1.511,0.978l0,0
				c0.154,0.671-0.246,1.345-0.908,1.531l-14.759,4.163c-0.711,0.201-1.445-0.235-1.61-0.955l-0.268-1.169
				C349.543,398.883,349.998,398.179,350.712,398.037z"/>
			<path style="fill:#245472;" d="M354.007,406.893l12.439-3.709c0.737-0.22,1.513,0.2,1.732,0.937l0.151,0.506
				c0.21,0.706-0.165,1.453-0.857,1.706l-12.214,4.463c-0.753,0.275-1.583-0.141-1.812-0.91l-0.376-1.26
				C352.85,407.888,353.27,407.113,354.007,406.893z"/>
			<path style="fill:#245472;" d="M356.918,418.792l1.184,2.359c0.324,0.645,1.117,0.895,1.752,0.553l12.632-6.808
				c0.61-0.329,0.848-1.083,0.537-1.702l-0.392-0.781c-0.296-0.591-0.994-0.859-1.609-0.619l-13.424,5.23
				C356.895,417.298,356.58,418.117,356.918,418.792z"/>
			<path style="opacity:0.5;fill:#A1C5EB;" d="M378.245,408.275c-0.023,4.891-2.657,9.551-7.158,12.002
				c-3.794,2.066-8.187,4.44-12.348,6.647l-11.065-21.13c0,0,5.017,15.89,7.109,23.212c-3.689,1.926-6.938,3.57-9.037,4.525
				c1.095,4.068,1.824,6.763,1.895,7.001c0.216,0.724,15.504-7.457,25.92-13.129c5.487-2.988,8.008-9.504,5.969-15.409
				L378.245,408.275z"/>
			<path style="fill:#3A739B;" d="M320.334,383.78l23.584,64.426c0.552,1.507,2.181,2.325,3.72,1.866l9.246-2.757
				c1.607-0.479,2.522-2.171,2.043-3.778l-19.153-64.239c-0.444-1.49-1.943-2.404-3.471-2.117l-13.677,2.57
				C320.781,380.098,319.689,382.018,320.334,383.78z"/>
			<path style="opacity:0.5;fill:#FFFFFF;" d="M322.749,386.307l17.311-3.252c0.275-0.052,0.547-0.065,0.817-0.057l-1.103-3.698
				c-0.444-1.49-1.943-2.404-3.471-2.117l-13.677,2.57c-1.844,0.346-2.936,2.266-2.291,4.029l1.116,3.049
				C321.84,386.589,322.268,386.397,322.749,386.307z"/>
			<path style="opacity:0.5;fill:#A1C5EB;" d="M353.99,435.957l-10.515,3.135c-1.108,0.33-2.255,0.076-3.109-0.589l3.552,9.704
				c0.552,1.507,2.181,2.325,3.72,1.866l9.246-2.757c1.608-0.479,2.522-2.171,2.043-3.778l-2.811-9.427
				C355.712,434.97,354.97,435.664,353.99,435.957z"/>
		</g>
		<g>
			<polygon style="fill:#FFB652;" points="267.297,439.636 264.01,433.116 261.851,428.835 259.996,433.256 256.661,441.203 
				253.08,432.243 251.668,428.71 249.297,431.686 243.334,439.171 231.937,438.747 243.934,443.554 245.119,444.029 
				246.123,442.768 250.385,437.417 254.558,447.857 256.561,452.869 258.65,447.892 262.219,439.387 263.731,442.386 
				264.495,443.902 265.667,443.602 273.75,441.532 			"/>
			<polygon style="fill:#FFB652;" points="283.783,419.601 281.205,412.071 278.731,404.845 276.962,412.275 274.772,421.473 
				272.024,414.892 269.951,409.927 267.934,414.915 265.439,421.086 257.554,421.381 266.559,425.357 268.191,426.078 
				269.025,424.014 270.016,421.562 273.309,429.446 275.926,435.716 277.5,429.106 279.495,420.729 280.126,422.573 
				280.812,424.577 282.586,424.037 299.154,418.997 			"/>
		</g>
	</g>
	<g>
		<g>
			<g>
				<g>
					<path style="fill:#FFAD00;" d="M159.06,265.818c-5.836-15.553-18.266-28.297-36.063-32.831
						c-28.3-7.21-60.656,8.15-68.879,36.942c-3.075,10.768-3.032,22.447,0.297,33.151c3.692,11.867,10.785,22.737,20.834,30.168
						c11.722,8.667,21.547,13.349,27.058,27.643c18.09-6.132,36.2-12.202,54.29-18.334c-0.724-1.945-1.085-2.952-1.809-5.021
						c-4.379-12.521,2.6-22.891,5.758-34.533C163.852,290.815,163.509,277.675,159.06,265.818z"/>
				</g>
				<path style="fill:#FFFFFF;" d="M121.798,288.92c-3.655,1.377-5.508,5.47-4.131,9.124l1.891,5.018l-11.817,4.452l-1.89-5.018
					c-1.377-3.655-5.47-5.508-9.125-4.131c-3.655,1.377-5.508,5.47-4.131,9.125c1.377,3.655,5.47,5.508,9.125,4.131l5.018-1.891
					l14.659,38.907l15.036-5.665l-14.658-38.907l5.018-1.891c3.653-1.376,5.506-5.469,4.129-9.124
					C129.544,289.396,125.452,287.544,121.798,288.92z M101.114,310.011c-2.767,1.042-5.866-0.361-6.908-3.127
					c-1.042-2.767,0.361-5.866,3.127-6.908c2.767-1.042,5.866,0.361,6.908,3.127l1.891,5.018L101.114,310.011z M134.217,341.97
					l-11.817,4.452l-14.052-37.297l11.817-4.452L134.217,341.97z M126.186,300.565l-5.018,1.891l-1.891-5.018
					c-1.042-2.767,0.361-5.866,3.127-6.908c2.767-1.042,5.864,0.361,6.907,3.128C130.354,296.424,128.953,299.523,126.186,300.565z"
					/>
				<path style="opacity:0.3;fill:#EA5C4C;" d="M122.997,232.986c-16.617-4.233-34.626-0.677-48.333,8.802
					c7.431-1.027,15.083-0.695,22.463,1.185c17.797,4.534,30.228,17.278,36.063,32.831c4.449,11.858,4.792,24.997,1.486,37.184
					c-3.158,11.642-10.136,22.013-5.758,34.533c0.572,1.636,0.92,2.613,1.397,3.91c8.762-2.953,17.524-5.907,26.282-8.875
					c-0.724-1.945-1.085-2.952-1.809-5.021c-4.379-12.521,2.6-22.891,5.758-34.533c3.306-12.188,2.963-25.327-1.486-37.184
					C153.224,250.265,140.794,237.52,122.997,232.986z"/>
				<g>
					<path style="opacity:0.3;fill:#FFFFFF;" d="M79.611,279.983c-2.591,11.882-9.544,20.455-15.53,19.15
						c-5.986-1.305-8.739-11.995-6.148-23.877c2.591-11.882,9.544-20.455,15.53-19.15C79.449,257.411,82.202,268.101,79.611,279.983
						z"/>
					<path style="opacity:0.3;fill:#FFFFFF;" d="M72.675,306.938c1.371,2.605,1.03,5.481-0.761,6.424
						c-1.792,0.943-4.356-0.404-5.727-3.008s-1.03-5.481,0.761-6.424C68.74,302.986,71.304,304.333,72.675,306.938z"/>
				</g>
			</g>
			<g>
				<path style="fill:#619AC9;" d="M119.586,378.481c0,0,7.474,15.463,22.151,9.484c14.678-5.979,12.208-21.68,12.208-21.68
					L119.586,378.481z"/>
				<path style="opacity:0.3;fill:#245472;" d="M140.44,371.079c0.162,3.558-0.339,12.483-8.281,17.94
					c2.748,0.59,5.942,0.427,9.579-1.054c14.678-5.979,12.208-21.68,12.208-21.68L140.44,371.079z"/>
				<path style="fill:#619AC9;" d="M111.436,375.26l3.606,5.762c1.263,2.018,3.154,3.056,4.72,2.591l38.129-11.32
					c1.763-0.524,2.657-2.807,2.136-5.455l-1.657-8.412c-0.704-3.575-3.616-6.211-5.957-5.395L112.334,367
					C109.87,367.858,109.416,372.033,111.436,375.26z"/>
				<path style="opacity:0.3;fill:#FFFFFF;" d="M124.578,378.478l-4.254-6.796c-1.446-2.311-1.811-5.029-1.229-7.039L112.334,367
					c-2.464,0.859-2.918,5.033-0.898,8.26l3.606,5.762c1.263,2.018,3.154,3.056,4.72,2.591l7.856-2.333
					C126.504,380.785,125.422,379.825,124.578,378.478z"/>
				<path style="opacity:0.3;fill:#245472;" d="M152.412,353.029l-14.219,4.957c1.764,0.657,3.425,2.727,3.933,5.307l1.657,8.412
					c0.489,2.484-0.278,4.628-1.829,5.319l15.937-4.732c1.763-0.523,2.657-2.807,2.136-5.455l-1.657-8.412
					C157.665,354.849,154.754,352.213,152.412,353.029z"/>
				<path style="fill:#619AC9;" d="M160.645,338.007l0.359,1.538l0.403,1.705l0.965,4.122l0.397,1.689l0.928,3.878l0.391,1.672
					l0.17,0.745c0.349,1.56-0.521,3.156-2.036,3.671L108.4,375.374c-1.467,0.498-3.093-0.158-3.777-1.536l-0.424-0.833l-0.79-1.559
					l-1.472-2.883l-0.784-1.543l-1.189-2.328l-0.784-1.543l-0.866-1.714c-0.848-1.666-0.05-3.694,1.688-4.349l56.502-21.287
					C158.259,335.138,160.215,336.184,160.645,338.007z"/>
				<path style="opacity:0.3;fill:#FFFFFF;" d="M115.101,371.418l-7.72-15.207c-0.286-0.563-0.405-1.158-0.402-1.744L100,357.096
					c-1.741,0.656-2.526,2.678-1.684,4.336l6.296,12.401c0.704,1.387,2.321,2.044,3.793,1.542l7.796-2.658
					C115.755,372.377,115.369,371.947,115.101,371.418z"/>
				<path style="opacity:0.3;fill:#245472;" d="M156.5,335.81l-19.28,7.264c1.764-0.664,3.71,0.373,4.141,2.207l3.608,15.338
					c0.205,0.873,0.012,1.746-0.454,2.443l17.702-6.036c1.521-0.519,2.4-2.107,2.032-3.671l-3.608-15.338
					C160.21,336.182,158.264,335.145,156.5,335.81z"/>
				<path style="opacity:0.3;fill:#FFFFFF;" d="M110.602,359.361c-3.793,1.3-7.599,2.569-11.422,3.788l0.784,1.543
					c19.993-6.411,39.635-13.848,58.842-22.298c0.867-0.382,1.734-0.764,2.601-1.145l-0.403-1.705
					C144.51,346.899,127.698,353.508,110.602,359.361z M110.988,363.995c-3.27,1.03-6.546,2.044-9.834,3.025l0.784,1.543
					c20.611-6.184,40.917-13.375,60.832-21.503l-0.397-1.689C145.5,352.261,128.358,358.48,110.988,363.995z M154.277,354.138
					c-13.669,4.654-27.339,9.307-41.008,13.961c-3.288,1.128-6.566,2.235-9.86,3.347l0.79,1.559
					c9.188-3.131,18.36-6.255,27.548-9.386c10.784-3.677,21.558-7.331,32.341-11.008l-0.391-1.672
					C160.554,352.012,157.421,353.064,154.277,354.138z"/>
			</g>
		</g>
		<g>
			<polygon style="fill:#FFB652;" points="20.61,214.746 40.703,224.981 43.649,215.866 63.302,234.594 47.865,225.506 
				42.958,235.91 			"/>
			<polygon style="fill:#FFB652;" points="73.478,179.427 81.046,200.668 89.449,196.068 90.863,223.179 85.891,205.969 
				75.177,210.158 			"/>
		</g>
	</g>
	<path style="fill:none;stroke:#3A739B;stroke-miterlimit:10;" d="M354.24,415.033"/>
	<g>
		<polygon style="fill:#FFFFFF;" points="395.34,99.99 393.441,110.815 401.556,110.815 389.573,124.66 392.149,114.581 
			384.998,114.581 		"/>
		<polygon style="fill:#FFFFFF;" points="442.277,57.644 438.623,78.468 454.234,78.468 431.183,105.101 436.137,85.712 
			422.383,85.712 		"/>
		<polygon style="fill:#FFFFFF;" points="99.364,53.609 99.893,64.587 91.842,63.571 101.997,78.808 100.704,68.485 107.798,69.381 
					"/>
		<polygon style="fill:#FFFFFF;" points="56.947,64.579 64.384,85.023 48.567,87.823 76.699,110.674 68.202,91.917 82.138,89.45 		
			"/>
		<polygon style="fill:#FFFFFF;" points="412.776,450.543 403.318,444.945 400.453,452.538 391.729,436.439 400.25,442.406 
			402.774,435.717 		"/>
		<polygon style="fill:#FFFFFF;" points="463.143,451.07 446.6,448.168 446.6,460.569 425.442,442.257 440.845,446.193 
			440.845,435.266 		"/>
		<polygon style="fill:#FFFFFF;" points="77.135,462.745 79.508,449.221 69.37,449.221 84.34,431.926 81.123,444.517 
			90.055,444.517 		"/>
		<polygon style="fill:#FFFFFF;" points="61.987,414.932 58.849,422.698 64.898,423.99 53.764,432.402 57.287,425.3 51.958,424.162 
					"/>
		<polygon style="fill:#FFFFFF;" points="446.41,131.842 441.893,132.173 428.465,133.158 450.831,115.09 445.212,109.56 
			426.559,133.421 425.949,134.201 426.915,134.272 438.519,135.124 423.79,151.413 424.252,151.875 443.024,134.903 		"/>
		<polygon style="fill:#FFFFFF;" points="477.883,418.205 451.478,403.534 450.599,403.046 450.706,404.039 451.949,415.536 
			433.381,403.935 432.814,404.759 452.996,420.015 456.675,422.797 455.514,418.383 452.069,405.298 474.356,423.417 		"/>
		<polygon style="fill:#FFFFFF;" points="51.62,396.69 24.787,410.349 20.968,412.293 25.101,413.204 38.342,416.123 
			16.619,426.041 18.781,430.019 40.145,416.397 41.017,415.841 40.048,415.478 29.105,411.385 52.105,397.565 		"/>
		<polygon style="fill:#FFFFFF;" points="62.858,120.629 61.847,124.065 58.339,135.996 28.636,105.284 21.108,114.694 
			58.262,137.343 58.735,137.631 59.03,137.157 64.449,128.466 89.106,149.744 90.195,148.585 65.503,123.334 		"/>
	</g>
</g>
</svg>
